<svg width="390" height="800" viewBox="0 0 390 800" fill="none" xmlns="http://www.w3.org/2000/svg">
<rect width="390" height="800" fill="#EB6937"/>
<path d="M181.733 392.098H186.869C189.909 392.098 192.177 391.413 192.177 388.76C192.177 386.32 190.422 385.549 186.912 385.549H181.733V392.098ZM181.733 380.412H186.912C190.337 380.412 191.878 379.214 191.878 376.859C191.878 374.719 190.166 373.563 186.955 373.563H181.733V380.412ZM175.483 395.179V370.483C175.483 369.347 176.404 368.427 177.54 368.427H186.613C193.804 368.427 198.128 371.423 198.128 376.346C198.128 379.642 196.372 381.867 193.633 382.895C196.501 383.708 198.427 385.549 198.427 389.188C198.427 394.838 193.419 397.235 186.527 397.235H177.54C176.404 397.235 175.483 396.314 175.483 395.179Z" fill="white"/>
<path d="M218.022 386.62C218.022 383.624 215.71 381.141 212.586 381.141C209.461 381.141 207.192 383.624 207.192 386.62C207.192 389.617 209.461 392.1 212.586 392.1C215.71 392.1 218.022 389.617 218.022 386.62ZM201.113 386.578C201.113 380.499 206.079 375.405 212.586 375.405C219.22 375.405 224.1 380.2 224.1 386.578V397.236H220.378C219.242 397.236 218.321 396.316 218.321 395.18V394.753C216.823 396.637 214.512 397.793 211.601 397.793C205.437 397.793 201.113 392.742 201.113 386.578Z" fill="white"/>
<path d="M234.191 387.348V397.194H228.112V386.621C228.112 380.456 231.751 375.405 239.157 375.405C246.562 375.405 250.286 380.414 250.286 386.621V397.194H244.208V387.348C244.208 384.095 242.624 381.313 239.157 381.313C235.732 381.313 234.191 384.095 234.191 387.348Z" fill="white"/>
<path d="M264.648 391.714C261.652 391.714 259.255 389.445 259.255 386.406C259.255 383.367 261.652 381.141 264.648 381.141C267.687 381.141 270.085 383.367 270.085 386.406C270.085 389.445 267.687 391.714 264.648 391.714ZM264.734 375.405C258.227 375.405 253.262 380.413 253.262 386.534C253.262 392.827 258.013 397.45 263.963 397.45C266.96 397.45 269.015 396.337 270.17 394.881V395.267C270.17 399.419 267.73 401.945 264.134 401.945C263.786 401.945 263.455 401.923 263.139 401.882C261.913 401.721 260.83 402.684 260.83 403.921V407.129C261.886 407.379 263.018 407.509 264.22 407.509C271.112 407.509 276.249 402.629 276.249 395.096V386.534C276.249 380.156 271.369 375.405 264.734 375.405Z" fill="white"/>
<path d="M165.415 425.446C169.765 425.446 171.343 423.655 171.343 420.499L171.306 404.235C171.303 403.097 172.225 402.174 173.362 402.174H177.571V420.029C177.571 427.238 173.647 431.418 165.415 431.418V425.446Z" fill="white"/>
<path d="M198.275 420.441C198.275 417.455 195.971 414.981 192.858 414.981C189.744 414.981 187.483 417.455 187.483 420.441C187.483 423.427 189.744 425.901 192.858 425.901C195.971 425.901 198.275 423.427 198.275 420.441ZM181.427 420.398C181.427 414.341 186.374 409.265 192.858 409.265C199.469 409.265 204.331 414.043 204.331 420.398V431.019H200.63C199.494 431.019 198.573 430.098 198.573 428.962V428.545C197.08 430.422 194.777 431.574 191.877 431.574C185.734 431.574 181.427 426.54 181.427 420.398Z" fill="white"/>
<path d="M244.967 419.986V431.033H238.91V421.01C238.91 417.768 237.502 415.038 234.175 415.038C230.891 415.038 229.483 417.725 229.483 420.924V431.033H223.427V420.967C223.427 417.725 222.019 415.038 218.735 415.038C215.365 415.038 214.043 417.768 214.043 420.967V431.033H207.986V419.986C207.986 414.1 211.441 409.152 218.266 409.152C222.318 409.152 225.261 410.943 226.498 413.844C227.82 410.943 230.806 409.152 234.602 409.152C241.469 409.152 244.967 414.1 244.967 419.986Z" fill="white"/>
<path d="M255.945 409.978V431.091H249.888V412.034C249.888 410.898 250.809 409.978 251.945 409.978H255.945ZM249.163 403.068C249.163 401.02 250.869 399.314 252.917 399.314C254.964 399.314 256.628 401.02 256.628 403.068C256.628 405.158 254.964 406.821 252.917 406.821C250.869 406.821 249.163 405.158 249.163 403.068Z" fill="white"/>
<path d="M267.113 421.283V431.093H261.057V420.558C261.057 414.416 264.682 409.383 272.061 409.383C279.441 409.383 283.151 414.373 283.151 420.558V431.093H277.095V421.283C277.095 418.041 275.516 415.269 272.061 415.269C268.649 415.269 267.113 418.041 267.113 421.283Z" fill="white"/>
<path d="M132.751 402.973C136.402 402.973 139.364 400.473 139.436 397.368H126.067C126.139 400.473 129.101 402.973 132.751 402.973Z" fill="white"/>
<path d="M153.219 368.429H106.849V372.539C106.849 378.322 111.537 383.01 117.319 383.01H121.152V383.005H144.054V402.586C144.054 404.25 143.263 405.815 141.923 406.8L138.951 408.968C137.061 410.347 134.831 411.028 132.603 411.018C132.579 411.018 132.555 411.015 132.53 411.015C130.39 410.991 128.255 410.331 126.429 409.024L123.321 406.798C121.959 405.815 121.152 404.237 121.152 402.557V402.416C121.152 399.605 118.873 397.327 116.063 397.327H106.849V408.144C106.849 411.922 108.663 415.471 111.727 417.683L128.565 429.738C129.771 430.602 131.188 431.026 132.603 431.016C133.972 431.006 135.339 430.589 136.511 429.759L153.564 417.687C156.578 415.47 158.357 411.951 158.357 408.209V373.567C158.357 370.729 156.057 368.429 153.219 368.429Z" fill="white"/>
</svg>
